<svg xmlns="http://www.w3.org/2000/svg" xmlns:xlink="http://www.w3.org/1999/xlink" width="500" zoomAndPan="magnify" viewBox="0 0 375 374.999991" height="500" preserveAspectRatio="xMidYMid meet" version="1.0"><defs><g/><clipPath id="204a57ae0e"><path d="M 89.925781 107 L 283 107 L 283 244.722656 L 89.925781 244.722656 Z M 89.925781 107 " clip-rule="nonzero"/></clipPath><clipPath id="760cd7832f"><path d="M 99 71.472656 L 284.925781 71.472656 L 284.925781 225 L 99 225 Z M 99 71.472656 " clip-rule="nonzero"/></clipPath></defs><rect x="-37.5" width="450" fill="#ffffff" y="-37.499999" height="449.999989" fill-opacity="1"/><rect x="-37.5" width="450" fill="#fffbfb" y="-37.499999" height="449.999989" fill-opacity="1"/><g clip-path="url(#204a57ae0e)"><path fill="#1e1e1e" d="M 189.296875 169.941406 C 188.320312 169.878906 184.167969 169.699219 183.375 169.207031 C 184.292969 167.4375 187.402344 164.082031 190.515625 165.484375 C 190.578125 166.644531 189.664062 168.902344 189.296875 169.941406 Z M 187.402344 109.023438 C 187.527344 108.046875 187.832031 107.742188 188.074219 107.011719 C 184.71875 107.195312 178.492188 110.429688 176.355469 111.832031 C 174.648438 112.929688 172.9375 114.214844 171.59375 115.433594 C 169.335938 117.449219 169.09375 118.304688 167.199219 119.035156 C 163.84375 120.316406 160.792969 124.222656 159.328125 127.582031 C 157.25 132.339844 156.703125 137.101562 156.703125 142.597656 C 156.703125 151.875 160.546875 164.144531 170.375 156.941406 C 175.5 153.21875 180.507812 145.769531 183.558594 138.445312 C 183.496094 144.183594 179.042969 153.582031 176.417969 156.574219 C 173.488281 159.871094 168.421875 163.777344 163.292969 162.128906 C 161.890625 161.703125 161.28125 161.152344 160.363281 160.234375 L 159.386719 159.503906 C 159.386719 167.378906 157.984375 172.628906 155.175781 178.609375 C 153.832031 181.355469 152.488281 183.613281 150.84375 186.054688 C 144.492188 195.699219 136.070312 203.757812 130.882812 212.179688 C 123.617188 223.839844 133.566406 217.671875 116.292969 223.289062 C 108.113281 225.914062 93.710938 232.324219 89.925781 238.730469 C 90.71875 238.304688 91.574219 237.632812 92.488281 237.082031 C 95.417969 235.3125 97.738281 234.335938 101.035156 233.175781 C 110.617188 229.820312 118.917969 229.148438 128.808594 227.746094 C 134.054688 227.011719 139.183594 227.132812 144.492188 226.769531 C 144.492188 214.621094 147.058594 209.128906 152.734375 199.605469 C 154.808594 196.1875 156.945312 193.195312 159.019531 189.777344 C 161.097656 186.300781 162.621094 183.308594 164.390625 179.28125 L 165.246094 184.285156 C 166.039062 180.011719 166.101562 178 167.566406 174.152344 C 168.847656 170.613281 175.441406 158.894531 178.738281 160.90625 C 179.589844 161.394531 180.507812 163.714844 180.871094 165.121094 C 181.484375 167.316406 181.300781 168.355469 181.484375 170.613281 C 188.257812 170.675781 193.628906 171.894531 194.605469 178 C 205.289062 179.402344 200.832031 181.660156 200.101562 183.554688 C 200.894531 183.613281 200.832031 183.492188 201.503906 183.859375 C 201.929688 190.511719 197.476562 193.015625 193.507812 195.515625 C 188.441406 198.691406 185.328125 200.339844 185.207031 206.746094 C 184.597656 206.625 180.628906 202.902344 177.882812 202.78125 C 178.738281 203.328125 181.484375 206.015625 182.335938 206.871094 C 191.066406 216.085938 197.597656 226.464844 201.992188 238.550781 C 202.417969 239.648438 203.703125 244.226562 204.128906 244.898438 C 205.105469 243.125 204.859375 238.792969 204.738281 236.472656 C 207.914062 236.777344 211.941406 237.816406 215.480469 238.304688 C 232.695312 240.683594 252.105469 240.074219 268.035156 233.117188 C 272.371094 231.285156 280 227.132812 282.808594 223.898438 C 280.671875 224.511719 277.984375 225.851562 275.542969 226.644531 C 260.832031 231.46875 244.230469 231.894531 228.910156 229.636719 C 222.988281 228.78125 220.425781 227.929688 215.785156 227.132812 C 216.03125 226.15625 216.582031 225.242188 216.886719 224.265625 C 217.253906 223.351562 217.433594 222.25 217.679688 221.09375 C 218.535156 221.945312 218.535156 222.558594 220.183594 222.863281 C 219.570312 219.566406 217.070312 208.394531 219.082031 205.160156 C 220.671875 207.601562 221.097656 209.554688 221.890625 212.851562 C 222.5625 208.882812 221.21875 203.574219 219.9375 199.910156 C 219.511719 198.691406 218.839844 197.410156 218.535156 196.308594 C 219.570312 197.042969 219.9375 198.203125 220.730469 198.8125 C 220.609375 194.84375 218.59375 191.183594 217.070312 188.558594 C 209.925781 176.535156 207.242188 172.992188 207.972656 156.148438 C 206.386719 156.636719 199.855469 163.105469 199.367188 163.960938 C 199.917969 161.640625 204.128906 157.183594 205.59375 155.964844 C 208.339844 153.644531 210.660156 152.117188 214.015625 150.285156 C 221.585938 145.953125 228.605469 144.550781 228.910156 136.738281 C 232.632812 134.234375 233 127.640625 231.65625 124.34375 C 230.800781 122.148438 230.070312 122.269531 229.277344 121.234375 C 231.839844 120.011719 231.839844 117.507812 229.277344 116.226562 C 222.988281 113.113281 211.269531 120.746094 206.570312 118.425781 C 207.121094 117.265625 207.914062 117.265625 209.5 116.898438 C 208.21875 115.371094 206.019531 113.417969 204.007812 112.136719 C 199.976562 109.574219 198.511719 110.0625 196.742188 109.207031 C 197.660156 108.476562 197.414062 108.78125 198.511719 108.351562 C 198.511719 108.351562 198.878906 108.351562 199.125 108.046875 L 195.09375 107.621094 C 191.738281 107.4375 188.503906 109.023438 187.402344 109.023438 Z M 187.402344 109.023438 " fill-opacity="1" fill-rule="evenodd"/></g><path fill="#1e1e1e" d="M 100.179688 242.882812 C 103.292969 242.027344 106.160156 240.808594 109.703125 239.890625 C 120.933594 237.144531 132.53125 236.414062 143.882812 238.488281 C 157.554688 241.050781 175.441406 243.25 190.089844 241.355469 C 189.113281 240.929688 179.957031 240.136719 177.941406 239.890625 C 166.347656 238.304688 153.953125 235.070312 143.640625 233.664062 C 134.363281 232.445312 127.402344 232.6875 118.796875 234.582031 C 113.914062 235.617188 108.175781 237.753906 103.964844 240.257812 C 102.378906 241.234375 101.402344 242.027344 100.179688 242.882812 Z M 100.179688 242.882812 " fill-opacity="1" fill-rule="evenodd"/><path fill="#fffbfb" d="M 189.296875 169.941406 C 189.664062 168.902344 190.578125 166.644531 190.515625 165.484375 C 187.402344 164.082031 184.292969 167.4375 183.375 169.207031 C 184.167969 169.699219 188.320312 169.878906 189.296875 169.941406 Z M 189.296875 169.941406 " fill-opacity="1" fill-rule="evenodd"/><g clip-path="url(#760cd7832f)"><path fill="#1e1e1e" d="M 102.011719 156.023438 C 100.179688 149.25 99.265625 142.109375 99.449219 135.027344 C 99.691406 121.84375 103.71875 108.839844 111.777344 98.222656 C 115.804688 92.910156 120.6875 88.394531 126.304688 84.855469 C 142.480469 74.597656 160.914062 75.332031 177.453125 84.183594 C 178.796875 84.914062 180.078125 85.648438 181.359375 86.441406 C 182.214844 86.929688 183.070312 87.476562 183.925781 88.027344 C 184.292969 88.273438 185.632812 89.066406 186.0625 89.066406 C 186.609375 89.003906 188.378906 87.113281 188.808594 86.746094 C 197.230469 78.445312 206.9375 72.644531 219.023438 72.035156 C 230.253906 71.484375 240.933594 74.660156 250.457031 80.457031 C 258.878906 85.585938 266.386719 92.789062 272.003906 100.90625 C 273.101562 102.492188 274.199219 104.140625 275.175781 105.851562 C 276.152344 107.558594 277.070312 109.269531 277.984375 111.039062 C 278.414062 111.894531 278.777344 112.6875 279.207031 113.542969 C 283.355469 122.757812 285.066406 132.953125 284.820312 143.023438 C 284.636719 150.652344 283.355469 158.34375 281.039062 165.667969 C 279.265625 171.222656 277.191406 176.535156 274.445312 181.722656 C 272.429688 185.566406 270.171875 189.289062 267.851562 192.953125 C 260.039062 205.464844 249.417969 218.46875 236.050781 225 C 254.851562 206.871094 277.679688 163.777344 275.664062 137.40625 C 275.054688 129.105469 272.796875 120.925781 269.195312 113.480469 C 266.144531 107.316406 262.117188 101.335938 257.230469 96.449219 C 250.578125 89.917969 241.851562 85.21875 232.753906 83.082031 C 218.960938 79.847656 204.859375 82.535156 194.179688 92.238281 C 192.714844 93.519531 191.554688 94.984375 190.332031 96.449219 C 189.480469 97.550781 188.378906 98.890625 186.914062 99.199219 C 186.0625 99.320312 185.269531 99.074219 184.472656 98.648438 C 184.046875 98.402344 183.621094 98.039062 183.191406 97.734375 C 182.582031 97.183594 181.972656 96.695312 181.359375 96.144531 C 179.589844 94.804688 177.761719 93.460938 175.867188 92.359375 C 160.667969 83.449219 145.226562 82.960938 129.660156 91.140625 C 106.773438 103.226562 101.890625 129.777344 106.039062 153.339844 C 107.078125 159.320312 109.945312 172.078125 111.53125 178.058594 C 107.320312 170.980469 104.148438 164.019531 102.011719 156.023438 Z M 102.011719 156.023438 " fill-opacity="1" fill-rule="evenodd"/></g><g fill="#1e1e1e" fill-opacity="1"><g transform="translate(116.062314, 279.211907)"><g><path d="M 0.484375 0 L 7.6875 0 C 7.125 -0.484375 6.828125 -1.8125 6.828125 -3.03125 L 6.828125 -12.171875 L 9.421875 -6.25 C 9.703125 -6.078125 10.1875 -5.921875 10.65625 -5.921875 C 15.640625 -5.921875 19.046875 -10.09375 19.046875 -14.90625 C 19.046875 -19.921875 15.421875 -23.53125 9.1875 -23.53125 L 0.484375 -23.53125 C 1.046875 -23.046875 1.34375 -21.703125 1.34375 -20.484375 L 1.34375 -3.046875 C 1.34375 -1.828125 1.046875 -0.484375 0.484375 0 Z M 9.609375 -18.90625 C 12.296875 -18.90625 13.5625 -16.953125 13.5625 -14.90625 C 13.5625 -12.609375 12.484375 -10.578125 10.125 -10.578125 C 8.390625 -10.578125 7.53125 -11.515625 6.828125 -13.09375 L 6.828125 -18.90625 Z M 9.609375 -18.90625 "/></g></g></g><g fill="#1e1e1e" fill-opacity="1"><g transform="translate(135.602305, 279.211907)"><g><path d="M 12.515625 0.359375 C 15.96875 0.359375 19.046875 -0.609375 20.921875 -2.6875 C 20.09375 -4.6875 19.34375 -7.265625 19.34375 -7.265625 C 19.34375 -7.265625 17.640625 -4.3125 13.421875 -4.3125 C 11.25 -4.3125 9.21875 -5.140625 7.90625 -6.8125 C 6.875 -9.1875 9.25 -10.296875 12.203125 -10.296875 C 14.09375 -10.296875 16.03125 -9.46875 17 -8.640625 L 17 -14.03125 C 16.609375 -14.75 14.90625 -15.390625 13.421875 -15.390625 C 9.53125 -15.390625 6.828125 -12.203125 7.09375 -8.09375 C 6.609375 -9.09375 6.34375 -10.3125 6.34375 -11.75 C 6.34375 -16.78125 9.65625 -19.25 13.421875 -19.25 C 17.640625 -19.25 19.34375 -16.296875 19.34375 -16.296875 C 19.34375 -16.296875 20.09375 -18.875 20.921875 -20.875 C 19.046875 -22.953125 15.96875 -23.90625 12.515625 -23.90625 C 5.421875 -23.90625 0.859375 -18.46875 0.859375 -11.78125 C 0.859375 -5.09375 5.421875 0.359375 12.515625 0.359375 Z M 12.515625 0.359375 "/></g></g></g><g fill="#1e1e1e" fill-opacity="1"><g transform="translate(156.532788, 279.211907)"><g><path d="M 0.484375 -23.53125 L 0.484375 -17.53125 C 1.6875 -18.65625 3.53125 -18.90625 4.734375 -18.90625 L 6.484375 -18.90625 L 6.484375 -3.046875 C 6.484375 -1.828125 6.1875 -0.484375 5.640625 0 L 12.828125 0 C 12.265625 -0.484375 11.96875 -1.8125 11.96875 -3.03125 L 11.96875 -18.90625 L 13.8125 -18.90625 C 15 -18.90625 16.859375 -18.65625 18.046875 -17.53125 L 18.046875 -23.53125 Z M 0.484375 -23.53125 "/></g></g></g><g fill="#1e1e1e" fill-opacity="1"><g transform="translate(175.072611, 279.211907)"><g/></g></g><g fill="#1e1e1e" fill-opacity="1"><g transform="translate(182.390967, 279.211907)"><g><path d="M 0.484375 0 L 7.6875 0 C 7.125 -0.484375 6.828125 -1.8125 6.828125 -3.03125 L 6.828125 -12.171875 L 9.421875 -6.25 C 9.703125 -6.078125 10.1875 -5.921875 10.65625 -5.921875 C 15.640625 -5.921875 19.046875 -10.09375 19.046875 -14.90625 C 19.046875 -19.921875 15.421875 -23.53125 9.1875 -23.53125 L 0.484375 -23.53125 C 1.046875 -23.046875 1.34375 -21.703125 1.34375 -20.484375 L 1.34375 -3.046875 C 1.34375 -1.828125 1.046875 -0.484375 0.484375 0 Z M 9.609375 -18.90625 C 12.296875 -18.90625 13.5625 -16.953125 13.5625 -14.90625 C 13.5625 -12.609375 12.484375 -10.578125 10.125 -10.578125 C 8.390625 -10.578125 7.53125 -11.515625 6.828125 -13.09375 L 6.828125 -18.90625 Z M 9.609375 -18.90625 "/></g></g></g><g fill="#1e1e1e" fill-opacity="1"><g transform="translate(201.930958, 279.211907)"><g><path d="M 2.5625 0 L 9.3125 0 C 7.78125 -2.03125 6.859375 -4.25 6.484375 -7.03125 L 13.03125 -7.03125 L 13.03125 -3.03125 C 13.03125 -1.8125 12.734375 -0.484375 12.171875 0 L 19.359375 0 C 18.8125 -0.484375 18.515625 -1.828125 18.515625 -3.046875 L 18.515625 -21.75 C 17.8125 -23.078125 15.390625 -23.90625 13.125 -23.90625 C 5.1875 -23.90625 0.859375 -16.6875 0.859375 -9.96875 C 0.859375 -6 1.390625 -3.46875 2.5625 0 Z M 6.515625 -11.65625 C 7 -14.875 8.78125 -18.875 13.046875 -18.875 L 13.03125 -11.65625 Z M 6.515625 -11.65625 "/></g></g></g><g fill="#1e1e1e" fill-opacity="1"><g transform="translate(221.544144, 279.211907)"><g><path d="M 0.484375 0 L 17.4375 0 L 17.4375 -6 C 16.25 -4.875 14.390625 -4.640625 13.203125 -4.640625 L 6.828125 -4.640625 L 6.828125 -20.515625 C 6.828125 -21.734375 7.125 -23.046875 7.6875 -23.53125 L 0.484375 -23.53125 C 1.046875 -23.046875 1.34375 -21.703125 1.34375 -20.484375 L 1.34375 -3.046875 C 1.34375 -1.828125 1.046875 -0.484375 0.484375 0 Z M 0.484375 0 "/></g></g></g><g fill="#1e1e1e" fill-opacity="1"><g transform="translate(239.474107, 279.211907)"><g><path d="M 0.484375 -4 C 1.125 -1.90625 5.046875 0.359375 9.140625 0.359375 C 14.609375 0.359375 18.78125 -2.421875 18.78125 -7.1875 C 18.78125 -15.46875 7.1875 -12.859375 7.1875 -16.734375 C 7.1875 -18.3125 9.125 -18.953125 10.6875 -18.953125 C 12.875 -18.953125 14.828125 -17.828125 16.21875 -16.5625 C 17.046875 -18.203125 18.125 -19.578125 18.953125 -20.859375 C 17.484375 -22.09375 15.21875 -23.90625 10.5625 -23.90625 C 5.75 -23.90625 0.953125 -21.203125 0.953125 -16.578125 C 0.953125 -8.21875 12.78125 -10.3125 12.78125 -6.734375 C 12.78125 -5.078125 11.09375 -4.421875 9.296875 -4.421875 C 6.8125 -4.421875 4.53125 -6.09375 3.265625 -8.125 C 2.5625 -6.6875 1.53125 -5.265625 0.484375 -4 Z M 0.484375 -4 "/></g></g></g></svg>